<svg width="500" height="500" viewBox="0 0 500 500" fill="none" xmlns="http://www.w3.org/2000/svg">
<rect width="500" height="500" fill="#00286E"/>
<path d="M331.126 205.043V129.521H253.948C229.687 129.402 206.287 138.507 188.487 154.992C179.964 162.817 173.153 172.323 168.485 182.909C163.816 193.496 161.39 204.935 161.36 216.505V370.479H187.85V216.505C187.975 208.303 189.767 200.213 193.117 192.725C196.467 185.237 201.304 178.509 207.336 172.95C220.029 161.216 236.662 154.671 253.948 154.61H304.89V205.553H264.136C248.567 205.46 233.544 211.287 222.109 221.854C216.646 226.857 212.275 232.935 209.273 239.708C206.27 246.48 204.7 253.799 204.661 261.207V370.606H230.132V261.08C230.177 256.914 231.07 252.801 232.756 248.991C234.442 245.181 236.886 241.755 239.939 238.92C246.31 232.789 254.785 229.326 263.627 229.241H331.126V294.32C331.081 298.486 330.188 302.599 328.502 306.409C326.816 310.218 324.372 313.645 321.319 316.48C314.869 322.426 306.403 325.703 297.631 325.649H248.472L237.264 350.357H298.013C313.617 350.431 328.674 344.608 340.168 334.055C345.635 329.028 350.006 322.927 353.008 316.134C356.01 309.341 357.579 302.001 357.616 294.575V205.043H331.126Z" fill="white"/>
</svg>
