<svg width="401" height="64" viewBox="0 0 401 64" fill="none" xmlns="http://www.w3.org/2000/svg">
<path d="M73.7562 0L61.6585 21.0732L49.561 0H73.7562Z" fill="#155EEF"/>
<path d="M16.5854 0H0L36.878 64L57.3659 28.4878L40.9756 0H24.5854L40.9756 28.4878L37.0732 35.5122L16.5854 0Z" fill="#155EEF"/>
<path d="M267.99 11.1375V10.5366H272.923L281.587 48.7029H282.85L290.911 10.5366H299.692L307.752 48.7029H309.016L317.739 10.5366H322.613V11.1375L312.806 52.6752H303.903L295.96 14.5089H294.697L286.695 52.6752H277.793L267.986 11.1375H267.99Z" fill="#155EEF"/>
<path d="M321.712 37.024C321.712 27.1517 328.692 21.1932 336.752 21.1932C346.138 21.1932 351.613 28.2365 351.129 36.7235L351.008 38.8306H326.403C327.003 44.9725 330.552 49.1868 336.931 49.1868C341.08 49.1868 344.333 47.5011 346.497 43.9502L350.045 46.2368C347.698 50.572 342.948 53.4634 336.931 53.4634C327.608 53.4634 321.712 46.5411 321.712 37.0279V37.024ZM346.497 34.6164C346.497 29.3798 342.406 25.345 336.752 25.345C330.798 25.345 327.308 29.3798 326.524 34.6164H346.497Z" fill="#155EEF"/>
<path d="M353.535 44.1258L357.926 42.9239C358.948 47.1382 362.438 49.2453 366.649 49.2453C371.582 49.2453 374.409 47.1382 374.409 44.2467C374.409 41.8391 372.783 40.3954 369.297 39.611L364.184 38.4677C359.61 37.4454 355.762 35.3383 355.762 29.8597C355.762 24.9821 359.915 21.1893 367.012 21.1893C373.028 21.1893 377.661 24.4397 378.862 29.9183L374.592 31.124C373.991 27.6317 370.981 25.345 367.012 25.345C363.042 25.345 360.152 27.3312 360.152 29.8597C360.152 32.3883 361.958 33.5316 365.327 34.3159L370.502 35.5178C375.313 36.6611 378.983 39.0726 378.983 44.2467C378.983 49.7252 373.929 53.4556 366.411 53.4556C358.893 53.4556 354.861 49.4833 353.535 44.1258Z" fill="#155EEF"/>
<path d="M386.466 45.0896V25.946H381.17V21.9736H386.587V14.9889H391.157V21.9736H400.78V25.946H391.157V45.0896C391.157 47.5596 392.662 48.5195 394.526 48.5195H400.359V52.6713H393.804C389.772 52.6713 386.466 50.0803 386.466 45.0857V45.0896Z" fill="#155EEF"/>
<path d="M88.5854 11.559V10.5366H96.8288L107.657 45.8739H108.921L119.87 10.5366H128.114V11.559L114.817 52.6752H101.945L88.5893 11.559H88.5854Z" fill="black"/>
<path d="M124.569 37.0825C124.569 27.6317 131.608 20.7094 141.294 20.7094C150.98 20.7094 158.018 27.6317 158.018 37.0825C158.018 46.5333 150.559 53.4595 141.294 53.4595C132.029 53.4595 124.569 46.5958 124.569 37.0825ZM141.294 46.5958C146.406 46.5958 150.38 42.9239 150.38 37.0825C150.38 31.2411 146.41 27.5692 141.294 27.5692C136.178 27.5692 132.208 31.483 132.208 37.0825C132.208 42.682 136.178 46.5958 141.294 46.5958Z" fill="black"/>
<path d="M204.847 36.9654C204.847 27.5731 211.343 20.7094 220.729 20.7094C230.115 20.7094 235.827 27.9321 235.71 35.8182L235.652 39.611H212.252C213.094 44.3053 216.401 46.8962 220.916 46.8962C224.227 46.8962 227.112 45.152 228.438 43.0449L233.913 46.7792C231.324 50.7515 226.995 53.4595 220.916 53.4595C211.713 53.4595 204.854 46.8377 204.854 36.9654H204.847ZM228.43 33.5355C228.251 30.1017 225.12 26.9137 220.729 26.9137C216.338 26.9137 213.449 29.4422 212.427 33.5355H228.43Z" fill="black"/>
<path d="M249.815 40.1534L242.839 52.6752H235.075V51.6529L243.501 36.6611L235.98 22.516V21.4898H243.86L249.815 33.3521V40.1534Z" fill="black"/>
<path d="M253.012 33.3521L258.846 21.4898H266.73V22.516L259.208 36.903L267.631 51.6529V52.6752H259.809L253.012 40.1534V33.3521Z" fill="black"/>
<path d="M176.786 27.8111L179.882 21.4898H164.823C163.166 21.4898 161.824 22.836 161.824 24.4905V52.6713H169.342L169.296 27.8072H176.79L176.786 27.8111Z" fill="black"/>
<path d="M203.162 27.8111V21.4898H194.381V14.505H187.042V21.4898H183.162L180.066 27.8111H186.925V43.4624C186.925 50.2637 191.078 52.6713 196.611 52.6713H202.686V45.87H197.453C195.589 45.87 194.384 45.0271 194.384 42.7405V27.8111H203.166H203.162Z" fill="black"/>
</svg>
